<svg width="3158" height="1690" viewBox="0 0 3158 1690" fill="none" xmlns="http://www.w3.org/2000/svg">
<rect width="3158" height="1690" fill="#1E1E1E"/>
<g clip-path="url(#clip0_0_1)">
<path d="M1581.33 2C1591.98 7.04814 1601.81 12.4009 1611.95 17.0916C1655.66 37.3088 1699.45 57.3582 1743.23 77.4185C1790.33 99.0006 1837.48 120.488 1884.57 142.089C1927.14 161.614 1969.65 181.259 2012.21 200.81C2039.37 213.287 2066.57 225.673 2093.73 238.143C2096.71 239.509 2099.55 241.163 2103.6 243.285C2095.18 247.363 2087.8 251.055 2080.32 254.537C2033.04 276.55 1985.75 298.538 1938.45 320.492C1883.61 345.942 1828.72 371.28 1773.91 396.791C1723.32 420.341 1672.81 444.076 1622.24 467.681C1611.11 472.877 1599.98 478.112 1588.65 482.838C1583.41 485.024 1580.75 488.396 1580.26 493.838C1579.63 500.759 1578.43 507.681 1578.49 514.595C1578.55 522.288 1581.15 524.123 1588.98 524.353C1595.43 524.541 1601.09 522.809 1607.01 519.974C1638.45 504.898 1670.08 490.193 1701.8 475.698C1748.32 454.442 1794.96 433.463 1841.57 412.401C1844.82 410.928 1848.21 409.741 1852.04 408.221C1852.04 464.237 1852.04 519.505 1852.04 575.551C1762 616.727 1671.75 657.992 1581.39 699.311C1487.94 656.047 1394.53 612.804 1300.58 569.314C1300.58 503.318 1300.58 437.432 1300.58 370.711C1260.02 352.756 1219.73 334.921 1178.76 315.961C1177.99 310.838 1177.91 306.792 1172.6 306.129C1169 305.68 1166.1 306.444 1165.66 310.782C1123.26 291.891 1080.87 273 1036.81 253.363C1049.94 247.151 1061.4 241.614 1072.96 236.28C1119.68 214.72 1166.42 193.206 1213.17 171.705C1266.85 147.015 1320.57 122.417 1374.22 97.6655C1415.22 78.7513 1456.12 59.6319 1497.09 40.657C1520.58 29.7749 1544.13 19.0113 1567.64 8.1616C1570.95 6.63367 1574.18 4.91877 1577.72 2.64522C1578.89 2 1579.78 2 1581.33 2ZM1558.95 225.789C1548.7 227.393 1538.65 229.718 1530.39 236.448C1523.45 242.112 1523.53 249.3 1530.46 254.953C1532.99 257.021 1535.93 258.852 1538.98 259.984C1565.87 269.949 1592.86 269.961 1619.76 260.054C1623.11 258.821 1626.33 256.748 1629.04 254.398C1635.59 248.711 1635.79 241.845 1628.76 236.783C1623.5 232.99 1617.25 230.017 1611 228.229C1594.53 223.517 1577.66 222.728 1558.95 225.789Z" fill="#030101"/>
<path d="M1576.75 1692C1554.53 1667.8 1537.24 1640.59 1519.97 1613.4C1468.44 1532.25 1420.78 1448.79 1373.1 1365.35C1353.31 1330.72 1334.05 1295.78 1314.72 1260.89C1310.04 1252.45 1306.57 1243.65 1306.17 1233.6C1305.6 1218.96 1322.26 1210.25 1334.13 1215.85C1389.13 1241.8 1444.66 1266.6 1500.01 1291.78C1524.81 1303.06 1549.68 1314.18 1574.42 1325.6C1578.11 1327.3 1580.99 1327.28 1584.66 1325.6C1632.39 1303.71 1680.17 1281.97 1727.96 1260.23C1760.32 1245.51 1792.7 1230.81 1825.11 1216.21C1839.33 1209.8 1851.9 1218.2 1852.42 1233.81C1852.78 1244.36 1848.45 1253.31 1843.68 1262.02C1829.77 1287.38 1815.77 1312.69 1801.34 1337.75C1762.34 1405.45 1723.57 1473.29 1683.78 1540.53C1657.03 1585.74 1630.04 1630.9 1598.43 1673.02C1593.69 1679.34 1587.95 1684.91 1582.33 1691.42C1580.5 1692 1579 1692 1576.75 1692Z" fill="#1A01F1"/>
<path d="M464.78 426.746C474.074 419.146 483.64 412.792 491.366 404.684C499.323 396.335 507.088 387.022 511.889 376.711C515.253 369.486 513.522 359.88 513.986 351.333C514.014 350.806 513.457 350.089 512.975 349.716C504.76 343.365 498.073 334.708 485.721 335.506C473.497 336.296 461.183 335.679 448.289 335.679C448.289 328.264 448.289 321.481 448.289 314.169C526.749 314.169 605.183 314.169 683.98 314.169C683.98 320.501 683.98 326.406 683.98 333.678C676.075 333.678 668.217 333.853 660.371 333.616C655.236 333.461 650.862 335.076 646.135 336.982C619.012 347.915 598.387 368.141 576.06 385.76C509.817 438.033 444.038 490.894 378.088 543.537C376.791 544.572 375.617 545.762 373.84 547.375C375.25 549.444 376.54 551.633 378.111 553.598C459.44 655.303 540.669 757.089 622.24 858.599C640.312 881.088 662.581 898.117 691.535 904.618C694.762 905.342 698.044 905.931 701.333 906.233C704.275 906.503 707.262 906.29 710.972 906.29C710.972 911.952 710.972 917.1 710.972 923.302C605.766 923.302 500.322 923.302 394.267 923.302C394.267 918.408 394.267 912.946 394.267 907.417C401.386 906.066 408.559 905.088 415.503 903.249C419.929 902.077 424.214 899.974 428.223 897.691C442.805 889.389 444.893 885.205 442.102 868.662C441.533 865.29 439.37 861.925 437.207 859.124C413.033 827.829 388.716 796.645 364.436 765.432C333.218 725.301 302.002 685.168 270.774 645.046C269.363 643.234 267.835 641.514 265.937 639.243C257.952 642.424 250.054 645.57 241.995 648.781C241.995 726.073 241.995 803.011 241.995 880.48C250.466 886.965 259.242 893.478 267.763 900.308C271.136 903.011 274.665 903.768 278.821 903.716C291.421 903.557 304.024 903.659 317.144 903.659C317.144 910.288 317.144 916.164 317.144 922.109C309.612 924.345 44.2746 925.417 7.45161 923.278C5.19439 916.999 6.75031 910.406 6.44193 903.097C9.11325 902.828 11.6264 902.367 14.1415 902.356C29.4726 902.288 44.8089 902.105 60.1327 902.443C65.281 902.557 69.1124 901.328 72.1197 897.118C74.236 894.155 76.7071 891.445 79.0371 888.637C84.5355 882.009 92.0891 876.162 94.9614 868.546C97.7169 861.241 95.6503 852.106 95.6535 843.775C95.6659 811.779 95.7864 779.782 95.633 747.787C95.269 671.855 94.7544 595.923 94.3347 519.991C94.0769 473.348 93.772 426.705 93.7817 380.062C93.7831 373.376 92.6075 367.48 88.1437 362.587C81.8908 355.733 75.7054 348.756 68.8584 342.526C63.6366 337.775 57.0924 335.831 49.6768 335.493C35.5334 334.847 21.4398 333.109 6.85349 331.781C6.85349 325.808 6.85349 320.311 6.85349 314.229C107.847 314.229 208.632 314.229 309.866 314.229C309.866 319.876 309.866 325.332 309.866 331.678C303.502 331.678 297.577 331.608 291.655 331.692C273.773 331.945 260.081 340.875 248.488 353.4C244.056 358.187 243.58 364.717 243.6 371.257C243.736 416.251 243.672 461.246 243.672 506.24C243.671 535.236 243.672 564.232 243.672 593.228C243.672 596.534 243.672 599.839 243.672 603.056C248.595 605.787 251.234 602.823 254.345 600.251C283.527 576.121 312.827 552.133 342.048 528.05C382.8 494.464 423.514 460.833 464.78 426.746Z" fill="#020202"/>
<path d="M1681.76 1165.87C1657.92 1177.06 1634.78 1187.97 1611.67 1198.92C1602.66 1203.19 1593.67 1207.48 1584.76 1211.96C1581.24 1213.73 1578.31 1213.95 1574.5 1212.13C1537.64 1194.5 1500.67 1177.11 1463.7 1159.69C1419.24 1138.72 1374.75 1117.81 1330.28 1096.85C1326.07 1094.86 1322.14 1091.98 1317.73 1090.78C1309.55 1088.56 1305.84 1082.99 1303.95 1075.44C1301.87 1067.13 1298.83 1058.88 1301.79 1050.19C1302.63 1047.73 1303.76 1045.25 1305.25 1043.13C1310.11 1036.24 1314.42 1035.01 1322.28 1038.17C1357.41 1052.26 1392.51 1066.42 1427.64 1080.53C1473.84 1099.09 1520.04 1117.63 1567.61 1136.72C1570.32 1131.97 1573.85 1127.49 1575.58 1122.41C1579.2 1111.7 1574.87 1103.08 1564.29 1097.92C1538.3 1085.24 1512.29 1072.61 1486.31 1059.92C1438.53 1036.56 1390.77 1013.16 1342.99 989.809C1333.14 984.994 1323.28 980.175 1313.33 975.581C1309.43 973.78 1306.89 971.292 1305.73 967.048C1304.34 961.949 1301.98 957.088 1300.88 951.944C1297.55 936.452 1302.67 926.778 1316.95 920.006C1400.37 954.127 1483.54 988.141 1567.04 1022.29C1575.62 1015.78 1576.62 1006.9 1575.22 997.357C1574.74 994.119 1573.28 991.035 1572.36 987.852C1570.22 980.39 1565.51 975.751 1558.42 972.232C1477.41 932.012 1396.52 891.529 1315.63 851.069C1299.65 843.076 1295.15 816.313 1307.41 803.944C1312.47 798.845 1317.32 797.795 1324.28 800.67C1370.01 819.542 1415.9 838.009 1461.75 856.577C1496.81 870.779 1531.89 884.936 1567.16 899.19C1575.27 894.538 1577.62 887.267 1575.29 878.806C1572.36 868.128 1567.94 858.017 1558.1 851.631C1548.64 845.484 1539.28 839.088 1529.4 833.661C1478.37 805.628 1424.86 782.88 1371.4 760.059C1353.08 752.24 1334.66 744.62 1316.06 737.526C1310.06 735.241 1307.07 731.457 1305.03 725.883C1301.4 715.938 1300.75 705.641 1302.01 695.374C1303.17 685.921 1308.65 678.927 1317.87 674.4C1337.5 682.368 1357.48 690.395 1377.4 698.576C1427.15 719.011 1476.87 739.508 1526.6 759.998C1542.25 766.449 1557.98 772.749 1573.48 779.541C1579.41 782.135 1584.52 782.056 1590.5 779.554C1661.55 749.838 1732.7 720.337 1803.83 690.811C1813.28 686.888 1822.8 683.135 1833.19 678.939C1847.58 721.802 1855.48 763.765 1837.34 806.879C1841.47 815.862 1846.44 824.919 1849.9 834.522C1861.49 866.668 1860.97 899.018 1849.05 930.92C1846.26 938.38 1846.83 944.181 1849.51 951.564C1867.36 1000.7 1859.14 1045.59 1825.65 1085.74C1820.97 1091.34 1815.76 1096.51 1810.64 1101.72C1801.75 1110.74 1789.71 1114.42 1778.75 1119.75C1746.79 1135.3 1714.58 1150.36 1681.76 1165.87Z" fill="#010101"/>
<path d="M1902.69 477.296C1889.02 455.993 1875.76 435.286 1861.7 413.337C1921.91 386.836 1981.55 360.588 2042.1 333.933C2165.88 528.779 2289.37 723.193 2412.99 917.794C2404.99 920.252 2215.82 921.252 2186.67 919.197C2174.26 899.846 2161.7 880.25 2149.12 860.676C2117.27 811.155 2085.39 761.661 2053.57 712.124C2016.54 654.476 1979.58 596.788 1942.56 539.13C1929.44 518.696 1916.26 498.302 1902.69 477.296Z" fill="#1A01F1"/>
<path d="M2589.13 688.798C2596.1 731.964 2607.11 772.733 2631.91 808.627C2654.8 841.755 2686.13 862.812 2724.54 873.788C2743.15 879.105 2762.28 881.996 2781.51 881.427C2808.15 880.639 2834.16 875.573 2859 865.352C2893.24 851.263 2923.61 831.281 2949.97 805.352C2960.6 794.89 2970.48 783.658 2980.76 772.826C2981.58 771.962 2982.8 771.48 2984.97 770.096C2986.84 790.632 2989.79 810.273 2975.24 826.727C2970.24 832.379 2963.91 836.936 2957.86 841.552C2926.28 865.62 2893.04 886.934 2855.82 901.34C2822.89 914.088 2788.77 919.36 2753.41 917.829C2695.62 915.327 2640.66 901.248 2588.12 877.672C2556.72 863.582 2528.09 844.985 2502.73 821.392C2459.25 780.934 2434.13 730.896 2423.55 672.947C2419.55 650.988 2417.33 628.841 2418.48 606.606C2420.86 560.477 2431.55 516.193 2449.62 473.625C2465.28 436.722 2487.06 403.894 2515.68 376.01C2556.46 336.291 2604.66 309.065 2659.69 294.162C2679.57 288.779 2699.71 284.564 2720.33 283.736C2740.89 282.91 2761.56 281.305 2782.01 282.637C2821.54 285.211 2860.05 293.564 2897.34 307.356C2910.05 312.057 2923.08 316.415 2936.34 319.014C2957.18 323.101 2975.25 309.214 2978.27 293.892C2979.17 289.282 2978.41 284.343 2978.41 279.045C2980.27 278.807 2982.16 278.394 2984.06 278.356C2988.96 278.257 2993.87 278.323 2999.2 278.323C2999.2 350.53 2999.2 421.711 2999.2 493.618C2992.74 493.618 2986.29 493.618 2979.77 493.618C2976.54 481.96 2973.9 470.003 2969.91 458.519C2952.08 407.209 2920.31 367.03 2872.48 340.669C2851.43 329.066 2828.57 322.229 2804.43 319.546C2770.99 315.831 2738.91 319.947 2708.23 333.884C2680.72 346.378 2658.3 365.339 2639.49 388.739C2610.03 425.386 2593.53 467.616 2585.79 513.632C2580.76 543.558 2578.94 573.767 2580.62 603.949C2582.17 632.024 2585.99 659.973 2589.13 688.798Z" fill="#020204"/>
<path d="M1151.92 590.138C1135.81 615.367 1119.75 640.623 1103.6 665.82C1066.07 724.359 1028.52 782.882 990.936 841.388C975.47 865.467 959.796 889.414 944.49 913.595C941.65 918.082 938.548 919.801 933.22 919.788C861.899 919.62 790.577 919.677 719.255 919.663C718.008 919.663 716.76 919.493 713.638 919.265C837.679 723.731 961.29 529.349 1085.27 334.115C1111.67 345.517 1137.76 356.787 1164.84 369.034C1165.91 382.005 1165.87 394.002 1166.18 405.99C1166.29 410.056 1164.67 412.675 1161.94 415.501C1149.22 428.614 1149.41 438.042 1162.1 451.688C1163.62 453.323 1165.83 455.383 1165.8 457.215C1165.6 469.46 1167.97 481.845 1164.08 493.924C1155.02 522.129 1145.99 550.347 1136.96 578.566C1135.89 581.911 1134.96 585.299 1133.78 589.316C1140.68 589.629 1146.3 589.884 1151.92 590.138Z" fill="#1A01F1"/>
<path d="M1152.85 589.964C1146.3 589.884 1140.68 589.629 1133.78 589.316C1134.96 585.299 1135.89 581.911 1136.96 578.566C1145.99 550.347 1155.02 522.129 1164.08 493.924C1167.97 481.845 1165.6 469.46 1165.8 457.215C1165.83 455.383 1163.62 453.323 1162.1 451.688C1149.41 438.042 1149.22 428.614 1161.94 415.501C1164.68 412.675 1166.29 410.056 1166.18 405.99C1165.87 394.002 1165.91 382.005 1165.55 369.134C1165.38 349.689 1165.48 331.121 1165.62 311.668C1166.1 306.444 1169 305.68 1172.6 306.129C1177.91 306.792 1177.99 310.838 1178.14 315.677C1178.06 335.471 1177.93 354.423 1177.73 375.236C1177.63 385.743 1177.83 394.399 1177.46 403.031C1177.21 408.692 1178.39 413.057 1183 416.984C1189.19 422.252 1192.28 429.632 1189.96 437.606C1188.55 442.452 1185.17 446.93 1181.93 450.973C1179.59 453.898 1177.79 456.366 1177.41 460.406C1175.17 484.686 1182.18 506.961 1191.45 528.819C1197.06 546.757 1202.68 564.696 1208.29 582.634C1208.87 584.484 1209.46 586.33 1210.56 589.79C1191.02 589.79 1172.4 589.79 1152.85 589.964Z" fill="#12040B"/>
<path d="M1191.89 528.21C1182.18 506.961 1175.17 484.686 1177.41 460.406C1177.79 456.366 1179.59 453.898 1181.93 450.973C1185.17 446.93 1188.55 442.452 1189.96 437.606C1192.28 429.632 1189.19 422.252 1183 416.984C1178.39 413.057 1177.21 408.692 1177.46 403.031C1177.83 394.4 1177.63 385.743 1177.86 376.11C1199.66 384.485 1221.27 393.832 1242.86 403.216C1250.15 406.381 1257.39 409.642 1265.82 413.378C1241.13 451.754 1216.74 489.677 1191.89 528.21Z" fill="#1B02F0"/>
<path d="M2203.32 983.747C2214.5 983.658 2224.81 983.658 2236.25 983.658C2242.29 1001.02 2248.36 1018.44 2255.09 1037.76C2262.17 1018.79 2268.6 1001.55 2275.1 984.108C2286.7 984.108 2297.91 984.108 2310.16 984.108C2309.06 986.47 2308.71 989.015 2307.54 989.46C2301.9 991.618 2301.74 996.239 2301.73 1000.96C2301.68 1020.93 2301.7 1040.91 2301.71 1060.89C2301.71 1066.08 2302.18 1070.89 2308.33 1072.87C2309.15 1073.14 2309.25 1075.67 2309.87 1077.8C2297.06 1077.8 2284.93 1077.8 2272.3 1077.8C2272.63 1075.92 2272.49 1073.82 2273.11 1073.57C2280.29 1070.64 2279.7 1064.56 2279.67 1058.54C2279.58 1042.13 2279.64 1025.72 2278.25 1008.92C2270.93 1028.28 2263.6 1047.63 2256.17 1067.26C2251.64 1067.26 2247.42 1067.26 2242.47 1067.26C2235.82 1048.54 2229.14 1029.72 2222.46 1010.9C2221.76 1011.02 2221.06 1011.14 2220.36 1011.27C2220.36 1022.01 2220.36 1032.75 2220.36 1043.49C2220.36 1049.15 2220.56 1054.82 2220.3 1060.47C2220.07 1065.43 2220.76 1069.59 2225.5 1072.44C2226.76 1073.19 2227.09 1075.49 2228.16 1077.76C2218.36 1077.76 2209.56 1077.76 2200.23 1077.76C2200.61 1075.83 2200.52 1073.73 2201.15 1073.49C2208.53 1070.62 2207.66 1064.41 2207.65 1058.44C2207.61 1039.8 2207.64 1021.15 2207.63 1002.51C2207.63 997.24 2208.51 991.822 2201.79 989.135C2199.69 988.296 2199.33 985.275 2203.32 983.747Z" fill="#1F07F1"/>
<path d="M2375.64 1059.29C2375.64 1040.06 2375.58 1021.75 2375.67 1003.44C2375.7 997.394 2376.21 991.374 2369.1 988.417C2368.48 988.16 2368.63 986.056 2368.32 984.191C2380.33 984.191 2391.87 984.191 2404.42 984.191C2410.34 1001.16 2416.41 1018.56 2423.12 1037.78C2430.12 1018.94 2436.46 1001.88 2443.01 984.246C2454.34 984.246 2465.78 984.246 2478.01 984.246C2477.25 986.463 2477.08 988.903 2476.2 989.192C2469.46 991.415 2469.72 996.885 2469.71 1002.25C2469.68 1020.56 2469.78 1038.87 2469.66 1057.17C2469.61 1063.94 2469.44 1070.52 2477.09 1073.82C2477.55 1074.02 2477.4 1075.62 2477.73 1077.93C2471.38 1078.08 2465.29 1078.28 2459.19 1078.35C2453.24 1078.42 2447.28 1078.37 2440.28 1078.37C2441.01 1075.81 2441.05 1073.12 2441.99 1072.75C2447.61 1070.57 2447.69 1066.1 2447.67 1061.26C2447.59 1043.97 2447.64 1026.68 2447.64 1006.84C2438.15 1027.89 2432.13 1047.96 2424.03 1067.35C2419.43 1067.35 2415.2 1067.35 2410.5 1067.35C2403.77 1048.41 2397.1 1029.64 2390.43 1010.86C2389.75 1011.02 2389.06 1011.18 2388.38 1011.33C2388.38 1029.12 2388.21 1046.92 2388.58 1064.71C2388.63 1067.15 2391.36 1069.57 2392.93 1071.95C2393.88 1073.41 2394.97 1074.77 2396.71 1077.14C2386.75 1079.25 2378.01 1078.21 2368.1 1078.01C2369.3 1071.05 2378.7 1067.9 2375.64 1059.29Z" fill="#1F07F1"/>
<path d="M491.582 1066.45C491.931 1039.32 492.129 1013.05 492.263 986.777C492.285 982.561 491.047 979.102 486.736 977.04C485.173 976.292 484.367 973.959 482.286 971.048C486.301 970.687 488.467 970.33 490.634 970.323C505.272 970.272 519.917 970.056 534.547 970.413C540.445 970.557 546.524 971.304 552.151 973C568.281 977.864 579.087 988.049 582.596 1005.19C585.523 1019.49 585.076 1033.55 580.481 1047.37C574.336 1065.85 560.333 1075.77 541.958 1077.35C522.868 1078.99 503.527 1077.72 484.366 1077.72C481.665 1070.64 491 1072.08 491.582 1066.45ZM518.356 1065.91C518.397 1069.03 520.376 1069.55 522.999 1069.7C537.973 1070.54 549.644 1062.96 554.103 1048.5C558.691 1033.62 559.211 1018.53 554.633 1003.41C549.314 985.857 538.026 978.428 518.327 980.548C518.327 1008.32 518.327 1036.21 518.356 1065.91Z" fill="#1F06F1"/>
<path d="M833.701 1049.9C833.701 1053.86 833.797 1056.87 833.681 1059.86C833.466 1065.41 833.536 1070.63 840.23 1072.82C841.097 1073.1 841.25 1075.57 841.986 1077.78C831.089 1077.78 820.958 1077.78 810.359 1077.78C810.633 1075.99 810.467 1073.87 811.07 1073.62C820.205 1069.87 819.324 1061.48 819.481 1054.27C819.924 1033.95 819.827 1013.61 819.527 993.283C819.427 986.509 819.784 979.01 811.374 975.681C810.623 975.384 810.759 972.843 810.294 970.313C820.924 970.313 830.863 969.991 840.751 970.559C842.978 970.687 845.692 973.523 847.05 975.79C856.789 992.051 866.267 1008.47 875.759 1024.88C878.833 1030.19 881.698 1035.63 886.299 1040.64C886.299 1032.49 886.3 1024.33 886.299 1016.18C886.297 1007.85 886.443 999.51 886.238 991.182C886.092 985.251 886.243 979.089 879.216 976.064C878.224 975.636 878.277 972.779 877.735 970.598C888.137 970.598 897.749 970.598 908.816 970.598C907.702 973.145 907.401 975.864 906.047 976.572C900.582 979.431 900.301 984.079 900.32 989.298C900.416 1015.3 900.364 1041.29 900.364 1067.29C900.364 1070.58 900.364 1073.86 900.364 1077.75C892.917 1077.75 886.067 1077.75 878.063 1077.75C863.686 1053.26 848.917 1028.11 833.268 1001.46C830.565 1018.36 834.841 1033.66 833.701 1049.9Z" fill="#1F07F1"/>
<path d="M378.166 1078.81C366.82 1078.78 356.005 1079.73 345.762 1077.73C330.842 1074.83 323.708 1065.93 322.277 1050.63C321.351 1040.73 321.737 1030.69 321.657 1020.71C321.574 1010.39 321.5 1000.07 321.694 989.75C321.799 984.148 321.41 979.19 315.507 976.279C314.376 975.722 314.254 973.117 313.42 970.763C327.912 970.763 341.444 970.763 355.117 970.763C357.164 973.427 356.593 975.711 353.579 976.973C348.281 979.193 347.636 983.453 347.661 988.418C347.757 1007.73 347.616 1027.04 347.776 1046.35C347.806 1049.94 348.409 1053.65 349.46 1057.09C352.475 1066.94 358.196 1070.42 369.16 1069.62C377.777 1068.99 383.586 1063.79 384.03 1053.93C385.018 1032.04 385.271 1010.11 385.522 988.194C385.581 983.133 384.051 978.441 378.381 976.248C377.246 975.809 376.917 973.288 375.82 970.845C388.454 970.845 399.961 970.845 412.211 970.845C411.719 972.806 411.802 975.567 410.771 976.078C404.454 979.207 404.299 984.668 404.33 990.516C404.42 1007.5 404.445 1024.48 404.307 1041.46C404.269 1046.09 403.995 1050.8 403.085 1055.33C400.434 1068.52 392.127 1076.11 378.166 1078.81Z" fill="#1F07F1"/>
<path d="M666.588 970.287C690.187 970.328 712.85 970.363 735.513 970.442C736.099 970.444 736.683 970.931 737.818 971.438C737.818 979.008 737.818 986.829 737.818 995.183C734.005 995.183 730.464 995.183 726.047 995.183C722.086 976.663 707.41 979.552 693.051 980.025C693.051 992.355 693.051 1004.48 693.051 1016.59C705.418 1018.3 707.979 1017.08 713.171 1006.83C714.543 1006.67 716.159 1006.35 717.778 1006.33C719.399 1006.31 721.023 1006.58 723.162 1006.77C723.162 1016.89 723.162 1026.74 723.162 1037.15C720.024 1037.39 717.144 1037.61 713.672 1037.88C710.514 1027.63 702.859 1025.62 692.932 1026.86C692.932 1040.83 692.932 1054.66 692.932 1068.42C713.873 1072.21 719.44 1069.24 727.016 1050.11C730.356 1050.11 733.889 1050.11 737.712 1050.11C737.712 1059.24 737.712 1068.09 737.712 1077.65C710.94 1077.65 684.814 1077.65 657.285 1077.65C658.365 1075.47 658.792 1072.82 660.105 1072.26C665.468 1070 666.25 1065.62 666.26 1060.79C666.311 1036.46 666.294 1012.13 666.284 987.797C666.282 983.283 665.538 979.306 660.718 977.041C659.15 976.305 658.35 973.935 656.291 971.034C660.64 970.687 663.147 970.487 666.588 970.287Z" fill="#2008F1"/>
<path d="M37.4232 996.425C39.036 1002.87 43.4881 1005.89 48.0734 1008.65C54.3415 1012.41 61.0014 1015.56 67.0636 1019.62C79.219 1027.75 86.6827 1039.41 82.4791 1056.27C79.5667 1067.96 71.67 1074.2 61.0845 1077.81C50.2624 1081.5 22.5599 1080.08 10.2932 1075.31C10.2932 1071.67 10.2932 1067.73 10.2932 1063.78C10.2932 1060.17 10.2932 1056.55 10.2932 1052.29C14.7477 1052.29 18.5465 1052.29 22.6163 1052.29C23.6286 1054.7 24.5371 1057.15 25.6569 1059.5C30.6282 1069.92 40.5065 1071.47 50.2072 1068.51C60.6962 1065.3 60.9591 1047.5 52.9047 1041.72C47.7937 1038.05 42.0826 1035.24 36.8587 1031.72C31.1038 1027.84 25.2101 1024.02 20.0631 1019.41C8.30746 1008.88 8.06525 982.409 28.9683 973.673C32.9197 972.022 37.1177 970.323 41.3045 970.007C49.5902 969.383 57.9587 969.426 66.271 969.752C71.2037 969.945 76.0946 971.205 81.6583 972.089C81.6583 979.788 81.6583 987.247 81.6583 995.214C77.9315 995.214 74.386 995.214 70.7908 995.214C63.3593 980.243 57.8239 976.878 45.9752 980.186C39.5362 981.984 36.8065 986.786 37.4232 996.425Z" fill="#2008F1"/>
<path d="M1143.2 991.844C1146.89 977.867 1157.17 972.197 1169.07 970.521C1183.12 968.542 1197.49 968.19 1211.87 972.602C1211.87 980.064 1211.87 987.267 1211.87 995.236C1208.19 995.421 1204.68 995.597 1200.87 995.789C1199.81 993.495 1198.81 991.454 1197.9 989.376C1194.71 982.085 1189.32 978.972 1181.25 979.625C1173.18 980.279 1169.87 982.088 1167.45 988.697C1165.63 993.668 1167.52 1000.77 1172.57 1004.65C1177.02 1008.08 1182.19 1010.55 1186.86 1013.71C1193.15 1017.96 1199.73 1021.95 1205.37 1026.98C1218.55 1038.73 1216.83 1066.77 1196.43 1075.5C1191.35 1077.67 1185.66 1079.36 1180.21 1079.5C1169.96 1079.75 1159.67 1078.83 1149.41 1078.13C1146.51 1077.93 1143.67 1076.81 1140.67 1076.07C1140.67 1067.97 1140.67 1060.4 1140.67 1052.23C1144.84 1052.23 1148.65 1052.23 1152.61 1052.23C1153.68 1054.8 1154.58 1057.26 1155.71 1059.61C1160.6 1069.78 1170.59 1071.91 1180.27 1068.36C1189.99 1064.79 1191.85 1050.05 1183.5 1042.37C1179.41 1038.6 1174.21 1036 1169.41 1033.05C1166.3 1031.14 1162.86 1029.76 1159.79 1027.78C1147 1019.53 1139.76 1008.52 1143.2 991.844Z" fill="#2008F1"/>
<path d="M2057.45 1013.99C2066.23 984.394 2098.36 972.043 2123.74 988.383C2128.99 991.758 2133.89 997.618 2136.09 1003.42C2143.52 1022.99 2143.5 1042.84 2133.78 1061.92C2130.19 1068.97 2124.2 1073.59 2116.81 1076.56C2106.58 1080.66 2095.96 1080.83 2085.49 1078.85C2068.73 1075.68 2058.66 1064.84 2056.6 1046.48C2055.43 1036.09 2056.96 1025.39 2057.45 1013.99ZM2092.32 992.146C2086.88 994.239 2083.84 998.632 2082.27 1003.83C2080.67 1009.18 2079.46 1014.73 2078.83 1020.28C2077.38 1033.27 2078.42 1046.17 2082.73 1058.54C2085.97 1067.86 2093.28 1071.97 2102.07 1070.16C2109.63 1068.59 2112.86 1062.65 2114.68 1056.1C2119.3 1039.45 2119.18 1022.61 2114.29 1006.09C2110.73 994.076 2106.61 991.657 2092.32 992.146Z" fill="#2008F1"/>
<path d="M184.285 1000.05C184.285 992.807 184.285 986.553 184.285 980.349C168.339 980.029 167.015 981.06 161.171 997.903C157.784 997.903 154.231 997.903 150.149 997.903C150.149 988.947 150.149 980.135 150.149 970.799C181.363 970.799 212.169 970.799 243.677 970.799C243.677 979.708 243.677 988.483 243.677 997.824C240.185 997.824 236.675 997.824 232.559 997.824C229.279 987.702 225.776 977.094 210.489 980.66C210.295 982.105 209.76 984.258 209.755 986.412C209.694 1010.05 209.716 1033.69 209.716 1057.33C209.716 1064.15 209.635 1070.94 218.446 1073C219.135 1073.17 219.24 1075.82 219.729 1077.75C204.332 1077.75 189.543 1077.75 173.377 1077.75C174.956 1075.25 175.598 1072.87 176.808 1072.53C182.988 1070.81 183.856 1066.24 183.887 1060.94C184.001 1040.97 184.149 1021.01 184.285 1000.05Z" fill="#220AF2"/>
<path d="M997.547 983.106C994.519 988.27 992.069 992.876 989.384 997.925C986.311 997.925 982.775 997.925 978.771 997.925C978.771 988.948 978.771 980.399 978.771 971.864C986.014 969.858 1050.55 969.122 1072.89 970.846C1072.89 979.512 1072.89 988.264 1072.89 997.704C1069.26 997.704 1065.47 997.704 1061.72 997.704C1055.47 980.939 1054.92 980.498 1039.09 980.215C1038.85 982.638 1038.4 985.129 1038.39 987.62C1038.34 1010.25 1038.31 1032.87 1038.39 1055.5C1038.42 1062.79 1038.06 1070.44 1047.38 1073.11C1047.77 1073.22 1048.01 1074.24 1048.1 1074.86C1048.19 1075.49 1048 1076.15 1047.8 1078.05C1040.9 1078.15 1033.78 1078.3 1026.66 1078.35C1019.38 1078.41 1012.09 1078.36 1003.07 1078.36C1004.41 1075.58 1004.86 1072.86 1006.04 1072.49C1011.17 1070.89 1012.43 1067.45 1012.48 1062.62C1012.53 1058.34 1013.56 1054.08 1013.58 1049.81C1013.7 1026.89 1013.64 1003.97 1013.64 980.487C1007.86 979.533 1002.83 979.46 997.547 983.106Z" fill="#1F07F1"/>
<path d="M2916.3 1039.98C2916.3 1026.99 2916.32 1015 2916.28 1003C2916.26 997.346 2916.82 991.436 2909.57 989.07C2908.78 988.814 2908.75 986.223 2908.22 984.112C2931.69 984.112 2954.53 984.112 2977.87 984.112C2977.87 991.308 2977.87 998.118 2977.87 1005.32C2974.5 1005.32 2971.62 1005.32 2968.92 1005.32C2961.27 991.364 2957.9 989.942 2938.87 992.679C2938.87 1003.13 2938.87 1013.66 2938.87 1024.99C2945.41 1025.17 2952.18 1026.96 2955.63 1018.98C2957.76 1014.05 2961.35 1015.73 2965.2 1016.29C2965.2 1025.25 2965.2 1034.12 2965.2 1044.71C2961.5 1043.21 2957.18 1042.8 2956.4 1040.92C2952.91 1032.5 2946.29 1033.75 2939.01 1034.05C2939.01 1045.74 2939.01 1057.23 2939.01 1068.75C2956 1073.45 2962.35 1070.46 2969.16 1054.13C2970.57 1053.98 2972.18 1053.69 2973.8 1053.67C2975.43 1053.66 2977.06 1053.93 2979.82 1054.17C2979.26 1061.92 2978.72 1069.4 2978.13 1077.63C2954.98 1077.63 2931.91 1077.63 2908.26 1077.63C2908.75 1075.75 2908.79 1073.16 2909.59 1072.9C2916.88 1070.54 2916.23 1064.6 2916.28 1058.96C2916.34 1052.97 2916.3 1046.97 2916.3 1039.98Z" fill="#2008F1"/>
<path d="M3067.72 996.304C3067.71 1006.52 3067.71 1015.78 3067.71 1025.44C3075.26 1025.21 3081.8 1025.99 3085.42 1018.17C3086.24 1016.39 3090.18 1016.06 3093.73 1014.66C3093.73 1024.89 3093.73 1033.69 3093.73 1043.27C3090.69 1043.45 3087.09 1045.58 3085.44 1041.19C3082.29 1032.83 3075.64 1033.62 3068.32 1033.98C3068.32 1045.84 3068.32 1057.61 3068.32 1069.35C3088.03 1072.01 3090.52 1070.76 3098.42 1054.12C3101.32 1054.12 3104.45 1054.12 3107.64 1054.12C3107.64 1062.11 3107.64 1069.62 3107.64 1077.74C3084.13 1077.74 3061.34 1077.74 3037.75 1077.74C3038.31 1075.77 3038.33 1073.03 3039.33 1072.6C3045.1 1070.13 3045.56 1065.21 3045.59 1060.18C3045.69 1040.87 3045.67 1021.57 3045.61 1002.26C3045.59 996.825 3045.09 991.601 3038.84 989.142C3038.03 988.821 3038.1 986.257 3037.62 984.128C3061.04 984.128 3083.83 984.128 3107.17 984.128C3107.17 991.349 3107.17 998.151 3107.17 1005.32C3103.77 1005.32 3100.88 1005.32 3098.21 1005.32C3090.93 992.807 3083.93 989.432 3070.35 991.969C3069.3 992.164 3068.6 994.173 3067.72 996.304Z" fill="#2007F1"/>
<path d="M2660.28 1016.03C2660.28 1007.45 2660.28 999.865 2660.28 992.722C2647.23 989.705 2643.82 998.161 2641.11 1007.18C2637.5 1007.18 2634.33 1007.18 2630.73 1007.18C2630.73 999.462 2630.73 992.266 2630.73 984.338C2658 984.338 2685.1 984.338 2712.96 984.338C2712.96 991.511 2712.96 998.936 2712.96 1007.19C2709.93 1007.37 2706.8 1007.55 2703.02 1007.77C2701.12 997.546 2696.66 990.416 2684.34 992.361C2684.15 994.61 2683.76 997.118 2683.75 999.627C2683.7 1019.25 2683.78 1038.88 2683.68 1058.51C2683.65 1064.61 2683.21 1070.64 2690.67 1073.2C2691.36 1073.43 2691.43 1075.47 2692.25 1078.25C2678.66 1078.46 2665.94 1078.48 2652.13 1078.17C2652.99 1075.73 2653.27 1072.98 2654.15 1072.77C2660.35 1071.31 2660.34 1066.81 2660.31 1061.93C2660.22 1046.96 2660.28 1031.99 2660.28 1016.03Z" fill="#230BF2"/>
<path d="M2821.72 1012.06C2821.72 1028.68 2821.8 1044.32 2821.68 1059.95C2821.63 1065.52 2821.66 1070.67 2828.31 1072.83C2829.15 1073.11 2829.27 1075.61 2829.95 1077.81C2816.42 1077.81 2803.62 1077.81 2788.69 1077.81C2791.02 1075.05 2791.97 1072.94 2793.54 1072.28C2796.77 1070.92 2798.26 1068.83 2798.26 1065.47C2798.26 1041.23 2798.26 1017 2798.26 992.805C2785.11 992.074 2784.71 992.381 2778.99 1007.09C2777.59 1007.28 2775.99 1007.64 2774.38 1007.68C2772.74 1007.73 2771.1 1007.46 2768.88 1007.29C2768.88 999.64 2768.88 992.179 2768.88 984.161C2796.31 984.161 2823.42 984.161 2851.13 984.161C2851.13 991.844 2851.13 999.3 2851.13 1007.25C2847.89 1007.44 2845 1007.61 2841.51 1007.81C2838.77 998.281 2834.98 989.807 2821.72 992.667C2821.72 998.556 2821.72 1004.81 2821.72 1012.06Z" fill="#230BF2"/>
<path d="M1983.55 996.354C1974.13 989.134 1964.41 990.543 1958.3 999.645C1956.49 1002.35 1955.17 1005.56 1954.36 1008.73C1950.63 1023.44 1950.34 1038.28 1953.87 1053.06C1954.7 1056.55 1956.42 1059.88 1958.07 1063.11C1961.47 1069.73 1967.43 1070.7 1974.18 1070.33C1980.53 1069.98 1983.6 1066.16 1985.67 1060.89C1986.25 1059.39 1986.75 1057.86 1987.39 1056.04C1990.82 1056.04 1994.04 1056.04 1997.83 1056.04C1997.83 1062.69 1997.83 1069.21 1997.83 1076.64C1982.25 1080.3 1966.58 1081.91 1950.99 1077.12C1941.59 1074.23 1935.21 1067.24 1932.1 1057.92C1926.45 1041.03 1926.24 1023.88 1932.45 1007.18C1937.9 992.496 1949.45 984.191 1964.72 982.531C1975.49 981.36 1986.57 981.421 1997.75 985.309C1997.75 991.716 1997.75 998.195 1997.75 1005.2C1994.71 1005.2 1991.86 1005.2 1988.29 1005.2C1987.03 1002.75 1985.54 999.863 1983.55 996.354Z" fill="#220AF2"/>
<path d="M2573.35 1076.64C2560.92 1077.45 2548.72 1077.45 2535.81 1077.45C2536.31 1075.75 2536.34 1073.02 2537.36 1072.59C2543.12 1070.12 2543.57 1065.2 2543.59 1060.18C2543.7 1040.9 2543.69 1021.63 2543.61 1002.35C2543.59 996.959 2543.22 991.671 2536.92 989.238C2536.08 988.915 2536.09 986.381 2535.53 984.19C2548.34 984.19 2560.48 984.19 2574.23 984.19C2572.94 986.571 2572.44 989.073 2571.12 989.635C2566.54 991.582 2565.78 995.301 2565.77 999.388C2565.69 1020.33 2565.68 1041.26 2565.75 1062.2C2565.76 1066.73 2567.02 1070.68 2571.86 1072.62C2572.72 1072.96 2573.02 1074.72 2573.35 1076.64Z" fill="#1E06F1"/>
<path d="M1347.9 1158.08C1350.91 1156.9 1353.15 1155.66 1356.23 1153.97C1356.75 1155.99 1358.07 1158.18 1357.45 1159.17C1354.73 1163.53 1354.97 1170.19 1348.4 1172.19C1346.79 1163.13 1346.79 1163.13 1336.74 1159.8C1335.68 1161.78 1334.47 1163.75 1333.52 1165.84C1331.24 1170.91 1329.08 1176.04 1326.68 1181.6C1329.67 1183.21 1332.32 1184.51 1334.84 1186.03C1339.48 1188.84 1343.37 1188.56 1347.18 1184.26C1349.76 1181.34 1350.11 1181.64 1355.27 1182.73C1352.95 1187.58 1350.73 1192.23 1348.11 1197.72C1335.63 1192.01 1323.78 1186.59 1309.38 1180.02C1318.5 1178.52 1320.39 1172.79 1322.85 1167.53C1327.49 1157.61 1332.36 1147.78 1336.61 1137.69C1338.24 1133.82 1338.42 1129.33 1339.54 1123.74C1350.52 1128.73 1362.28 1134.07 1374.82 1139.77C1372.13 1144.68 1371.31 1149.49 1366.36 1153.31C1364.79 1148.42 1364.5 1143.4 1361.87 1140.49C1358.97 1137.28 1353.92 1136 1348.86 1133.4C1345.57 1140.27 1342.51 1146.69 1339.12 1153.77C1342.02 1155.31 1344.58 1156.67 1347.9 1158.08Z" fill="#141414"/>
<path d="M1523.15 1274.34C1521.16 1274.37 1519.16 1274.56 1517.18 1274.41C1508.7 1273.77 1503.69 1268.51 1504.33 1260.03C1505.02 1250.88 1508.42 1242.63 1515.22 1236.19C1520.91 1230.81 1529.13 1229.87 1536.47 1233.47C1538.52 1234.48 1540.47 1235.69 1542.91 1237.06C1546.34 1230.53 1550.53 1224.71 1545.37 1215.52C1551.3 1217.73 1555.14 1219.17 1559.73 1220.89C1552.41 1237 1545.38 1252.63 1538.19 1268.19C1536.03 1272.86 1533.53 1277.33 1537.57 1282.75C1536.93 1283.12 1536.3 1283.5 1535.67 1283.87C1531.96 1281.81 1528.25 1279.75 1524.97 1276.79C1524.64 1275.37 1523.9 1274.86 1523.15 1274.34ZM1526.5 1237.21C1518.49 1242.21 1515.42 1250.21 1513.85 1258.86C1512.87 1264.21 1515.2 1268.43 1519.09 1269.35C1523.78 1270.46 1527.84 1268.91 1530.17 1264.67C1532.73 1260.04 1534.82 1255.13 1536.95 1250.27C1540.46 1242.26 1537.19 1236.26 1526.5 1237.21Z" fill="#141414"/>
<path d="M1672.18 1219.51C1671.26 1215.51 1670.13 1212.33 1669.87 1209.08C1669.32 1202.42 1671 1196.5 1677.35 1193.01C1683.18 1189.8 1691.93 1190.71 1696.56 1196.15C1705.68 1206.89 1712.14 1218.76 1712.68 1233.63C1713.05 1244.06 1699.69 1253.21 1689.96 1246.06C1686.31 1243.38 1682.86 1240 1680.39 1236.23C1677.16 1231.29 1674.98 1225.65 1672.18 1219.51ZM1703.79 1225.72C1700.62 1219.53 1697.71 1213.19 1694.16 1207.22C1692.17 1203.87 1689.44 1200.79 1686.48 1198.23C1682.25 1194.58 1677.16 1196.8 1676.47 1202.39C1676.23 1204.3 1676.29 1206.55 1677.08 1208.23C1681.41 1217.5 1685.63 1226.85 1690.7 1235.7C1692.66 1239.13 1696.77 1241.33 1699.73 1243.94C1707.37 1237.95 1707.37 1237.95 1703.79 1225.72Z" fill="#121212"/>
<path d="M1621.17 1229.63C1612.31 1230.24 1611.18 1231.21 1609.78 1237.97C1609.41 1239.75 1608.79 1241.5 1608.08 1243.18C1607.94 1243.53 1606.92 1243.52 1605.58 1243.85C1604.29 1241.59 1602.9 1239.16 1601.52 1236.74C1604.94 1230.05 1610.07 1226.11 1616.51 1223.67C1624.53 1220.63 1631.68 1223.17 1634.03 1231.28C1635.51 1236.41 1635.26 1242.36 1634.49 1247.76C1633.29 1256.19 1631 1264.47 1628.79 1274.56C1637.58 1270.79 1645.7 1269.64 1646.69 1259.26C1651.83 1261.69 1651.99 1266.29 1653.98 1271.21C1644.4 1276.06 1634.82 1280.9 1624.5 1286.12C1622.91 1277.81 1623.41 1270.68 1624.9 1263.51C1626.12 1257.67 1627.42 1251.83 1628.14 1245.92C1628.91 1239.67 1627.32 1234.02 1621.17 1229.63Z" fill="#141414"/>
<path d="M1393.89 1211.64C1396.16 1213.6 1397.99 1215.74 1399.95 1215.85C1402.19 1215.98 1405.43 1214.93 1406.59 1213.25C1407.76 1211.54 1407.75 1208.05 1406.78 1206.05C1405.24 1202.83 1402.36 1200.28 1400.27 1197.29C1396.41 1191.79 1396.01 1185.92 1398.97 1181.6C1401.88 1177.36 1407.71 1175.52 1414.05 1177.74C1418.93 1179.44 1423.46 1182.11 1428.67 1184.6C1426.92 1188.52 1425.65 1191.38 1423.88 1195.35C1421.96 1193.24 1420.5 1192.13 1419.72 1190.66C1418.82 1188.96 1418.9 1186.69 1417.86 1185.12C1415.73 1181.92 1410.63 1180.86 1408.15 1182.96C1405.14 1185.5 1404.99 1188.8 1407.03 1191.92C1409.02 1194.97 1411.58 1197.65 1413.68 1200.63C1417.43 1205.95 1417.5 1212.72 1414.06 1217.34C1410.78 1221.74 1405.04 1223.58 1398.71 1221.06C1393.62 1219.02 1389.02 1215.73 1383.64 1212.68C1385.55 1208.76 1386.94 1205.94 1389.5 1200.69C1391.4 1205.55 1392.46 1208.24 1393.89 1211.64Z" fill="#161616"/>
<path d="M1828.39 1155C1829.06 1163.48 1829.61 1171.04 1830.34 1178.59C1830.7 1182.41 1830 1185.2 1823.98 1185.41C1822.89 1167.93 1821.8 1150.39 1820.7 1132.76C1807.55 1135.72 1804.03 1138.58 1801.47 1147.94C1797.74 1144.86 1797.74 1144.86 1794.12 1135.08C1803.87 1130.22 1813.74 1125.29 1825.16 1119.59C1826.31 1132.02 1827.33 1143.04 1828.39 1155Z" fill="#161616"/>
<path d="M1757.53 1194.77C1753.45 1186.73 1749.7 1179.39 1745.29 1170.78C1742.09 1174.29 1739.64 1176.99 1737.09 1179.78C1734.96 1174.75 1739.38 1165.64 1747.96 1157.47C1755.94 1173.23 1763.81 1188.79 1771.75 1204.46C1776.01 1204.03 1779.62 1203.67 1784.73 1203.15C1776.34 1210.89 1762.31 1217.37 1755.42 1216.91C1758.37 1214.14 1760.9 1211.77 1763.99 1208.86C1761.93 1204.35 1759.9 1199.91 1757.53 1194.77Z" fill="#151515"/>
<path d="M1454.13 1229.99C1457.5 1222.71 1460.6 1216.13 1463.7 1209.54C1462.19 1207.91 1460.93 1206.54 1459.69 1205.2C1460.21 1204.59 1460.54 1203.81 1460.98 1203.74C1465.22 1203.08 1468.19 1200.95 1470.17 1197.04C1472.3 1192.83 1475.11 1193.59 1478.44 1196.93C1477.25 1199.78 1476.02 1202.72 1474.61 1206.08C1478.61 1208.38 1482.44 1210.58 1486.77 1213.06C1481.05 1219.74 1477.38 1212.67 1471.76 1213.01C1467.37 1219.86 1463.8 1228.37 1460.81 1237.03C1459.04 1242.16 1461.54 1244.21 1470.62 1246.25C1468.32 1251.54 1463.8 1250.9 1459.96 1249.98C1455.69 1248.96 1451.62 1246.5 1451.75 1241.31C1451.85 1237.75 1453.12 1234.23 1454.13 1229.99Z" fill="#121212"/>
<path d="M1523.41 1274.87C1523.9 1274.86 1524.64 1275.37 1524.88 1276.12C1524.13 1276.03 1523.89 1275.72 1523.41 1274.87Z" fill="#FFFEFF"/>
</g>
<defs>
<clipPath id="clip0_0_1">
<rect width="3158" height="1690" fill="white"/>
</clipPath>
</defs>
</svg>
